<svg xmlns="http://www.w3.org/2000/svg" xml:space="preserve" viewBox="0 0 72.81 18.202">
  <path fill="#fff" d="M0 0h72.81v18.202H0z" paint-order="markers stroke fill" />
  <g stroke="#000" stroke-linecap="round" stroke-linejoin="round" stroke-width=".265" paint-order="stroke fill markers">
    <path
      d="M6.916 4.916c-1.12 0-2.041.923-2.041 2.042v8.05c0 1.12.921 2.042 2.041 2.042h8.05c1.12 0 2.042-.923 2.042-2.042v-8.05c0-1.12-.922-2.042-2.042-2.042zm0 1.323h8.05c.41 0 .72.31.72.72v8.049c0 .41-.31.719-.72.719h-8.05a.703.703 0 0 1-.718-.72V6.959c0-.41.308-.719.719-.719" />
    <path
      d="M3.237 1.152c-1.12 0-2.042.922-2.042 2.043v8.05c0 1.12.922 2.042 2.042 2.042h.356v-1.324h-.356a.703.703 0 0 1-.719-.719v-8.05c0-.41.31-.719.72-.719h8.049c.41 0 .719.31.719.72v.424h1.323v-.424c0-1.12-.922-2.043-2.042-2.043Z" />
  </g>
  <g stroke="#000" stroke-linecap="round" stroke-linejoin="round" stroke-width=".265" paint-order="stroke fill markers">
    <path
      d="M63.045 1.966v9.212l-2.42-2.42c-.612-.612-1.547.324-.935.935l3.549 3.549c.279.261.653.239.935 0l3.549-3.549c.612-.611-.323-1.547-.935-.935l-2.42 2.42V1.966c0-.865-1.323-.865-1.323 0" />
    <path
      d="M55.51 12.607c.018.864-.07 1.745.14 2.593.11.413.325.8.656 1.074.662.547 1.54.611 2.783.611h9.234c1.244 0 2.121-.064 2.784-.611.331-.274.545-.662.656-1.074.197-.846.14-1.73.14-2.593 0-.866-1.323-.866-1.323 0v1.21c0 1.38-.057 1.745-2.257 1.745H59.09c-2.2 0-2.256-.364-2.256-1.746v-1.21c0-.865-1.323-.865-1.323 0" />
  </g>
  <path stroke="#000" stroke-linecap="round" stroke-linejoin="round" stroke-width=".265"
    d="M43.155.95c-3.411.978-5.902 4.26-5.929 7.809-.113 3.36 1.987 6.586 5.094 7.86 3.181 1.386 7.102.531 9.405-2.073a8.3 8.3 0 0 0 2.057-4.231.605.605 0 0 0-1.114-.41c-.897 1.497-2.86 2.174-4.59 1.864l-.02-.003c-2.753-.398-5.18-2.825-5.382-5.611l-.001-.01c-.134-1.497.249-3.063 1.132-4.254a.604.604 0 0 0-.652-.942m-1.178 1.843a7.7 7.7 0 0 0-.506 3.456c.25 3.408 3.078 6.224 6.4 6.711 1.36.242 2.796-.04 3.999-.733a7 7 0 0 1-1.04 1.508l-.007.01c-1.935 2.188-5.352 2.933-8.026 1.764l-.013-.006c-2.619-1.07-4.448-3.882-4.35-6.71v-.016c.016-2.425 1.465-4.75 3.543-5.984"
    paint-order="stroke fill markers" />
  <g stroke="#000" stroke-width=".265" paint-order="stroke fill markers">
    <path stroke-linejoin="bevel"
      d="M27.302 4.73a4.374 4.374 0 0 0-4.364 4.363 4.374 4.374 0 0 0 4.364 4.364 4.373 4.373 0 0 0 4.364-4.364 4.373 4.373 0 0 0-4.364-4.363zm0 1.322a3.03 3.03 0 0 1 3.041 3.041 3.03 3.03 0 0 1-3.04 3.04 3.03 3.03 0 0 1-3.041-3.04 3.03 3.03 0 0 1 3.04-3.04Z" />
    <path stroke-linecap="round" stroke-linejoin="round"
      d="M27.302.765a.66.66 0 0 0-.661.661V3.24c0 .175.07.343.193.467a.663.663 0 0 0 .936 0 .66.66 0 0 0 .193-.467V1.426a.66.66 0 0 0-.661-.661m5.895 2.44a.66.66 0 0 0-.935 0L30.98 4.488a.662.662 0 0 0 .935.935l1.282-1.282a.66.66 0 0 0 0-.936M35.64 9.1a.66.66 0 0 0-.661-.662h-1.814a.66.66 0 0 0-.661.662.66.66 0 0 0 .661.661h1.814a.66.66 0 0 0 .661-.661m-2.44 5.895a.66.66 0 0 0 0-.935l-1.283-1.283a.661.661 0 0 0-.935.936l1.282 1.282a.66.66 0 0 0 .935 0m-5.894 2.443a.66.66 0 0 0 .662-.662v-1.813a.662.662 0 0 0-1.324 0v1.813a.66.66 0 0 0 .662.662m-5.895-2.44a.66.66 0 0 0 .935 0l1.282-1.283a.66.66 0 0 0 0-.936.66.66 0 0 0-.935 0l-1.283 1.283a.66.66 0 0 0 0 .935m-2.442-5.894a.66.66 0 0 0 .662.661h1.813a.66.66 0 0 0 .661-.661.66.66 0 0 0-.193-.468.66.66 0 0 0-.468-.194h-1.813a.66.66 0 0 0-.662.662m2.44-5.895a.66.66 0 0 0 0 .935l1.283 1.282a.66.66 0 0 0 .936 0 .66.66 0 0 0 .194-.468.66.66 0 0 0-.194-.467l-1.283-1.282a.66.66 0 0 0-.935 0" />
  </g>
</svg>