<svg xmlns="http://www.w3.org/2000/svg" xml:space="preserve" viewBox="0 0 60.765 61.085">
  <g stroke="#000" stroke-linecap="round" stroke-linejoin="round" paint-order="stroke fill markers">
    <path
      d="M22.126 14.726c-4.234 0-7.717 3.486-7.717 7.718v30.423c0 4.232 3.483 7.719 7.717 7.719h30.423c4.233 0 7.718-3.487 7.718-7.719V22.444c0-4.232-3.485-7.718-7.718-7.718zm0 5h30.423c1.55 0 2.719 1.169 2.719 2.718v30.423c0 1.55-1.17 2.718-2.72 2.718H22.127c-1.55 0-2.718-1.169-2.718-2.718V22.444c0-1.549 1.167-2.719 2.718-2.719" />
    <path
      d="M8.22.5C3.988.5.5 3.985.5 8.219v30.423c0 4.233 3.487 7.72 7.719 7.72h1.347V41.36H8.22c-1.55 0-2.718-1.168-2.718-2.718V8.219c0-1.551 1.169-2.72 2.718-2.72h30.424c1.55 0 2.718 1.169 2.718 2.72v1.604h5V8.219C46.361 3.985 42.877.5 38.643.5z" />
  </g>
</svg>