<svg xmlns="http://www.w3.org/2000/svg" xml:space="preserve" viewBox="0 0 63.003 59.838">
  <g stroke="#000" stroke-linecap="round" stroke-linejoin="round" paint-order="stroke fill markers">
    <path
      d="M28.994 2.952v34.815l-9.147-9.146c-2.31-2.312-5.847 1.225-3.534 3.536l13.414 13.412c1.055.988 2.47.904 3.534 0l13.414-13.412c2.314-2.311-1.222-5.848-3.535-3.536l-9.146 9.146V2.952c0-3.269-5-3.269-5 0" />
    <path
      d="M.516 43.168c.067 3.268-.262 6.598.53 9.804.416 1.558 1.226 3.022 2.477 4.057 2.504 2.069 5.82 2.31 10.52 2.31h34.902c4.7 0 8.016-.241 10.52-2.31 1.252-1.035 2.061-2.5 2.479-4.057.745-3.2.53-6.54.53-9.804-.002-3.27-5-3.27-5.002 0v4.573c0 5.219-.212 6.598-8.527 6.598H14.043c-8.312 0-8.527-1.378-8.527-6.598v-4.573c-.002-3.27-5-3.27-5 0" />
  </g>
</svg>