<svg width="55.133" height="50.913" viewBox="0 0 14.587 13.471" xmlns="http://www.w3.org/2000/svg">
   <path
      style="color:#000;-inkscape-font-specification:&quot;Zapfino, Normal&quot;;display:inline;fill:#0b274d;fill-opacity:1;stroke:#a07f08;stroke-linecap:round;stroke-linejoin:round;stroke-opacity:.403543;-inkscape-stroke:none;paint-order:markers stroke fill"
      d="M108.701 140.426c-.84.065-.19 1.091-.87 1.377-.979.739-2.27.744-3.445.74-1.62.02-3.242-.067-4.861.005-.866.033-1.651.506-2.173 1.183-.587.723-.965 1.59-1.268 2.463-.216.847 1.076 1.019 1.14.169.472-1.127 1.321-2.23 2.575-2.503.91-.219 1.855-.215 2.787-.226-1.347 2.51-2.873 4.92-4.3 7.382-.33.566-.2 1.447.476 1.682.855.313 1.792.144 2.682.153.79.27 1.323-1.079.333-1.092-.453.008-.975.086-1.361-.188-.077-.666.406-1.232.679-1.802a88.27 88.27 0 0 1 3.69-6.134c1.343-.024 2.8.088 3.997-.634.564-.357 1.16-1.112.73-1.783-.186-.309-.402-.772-.81-.792zm-3.852 2.306c-.015.011-.063-.005 0 0z"
      transform="translate(-95.563 -139.926)" />
   <path
      style="color:#000;-inkscape-font-specification:&quot;Zapfino, Normal&quot;;display:inline;fill:#e4ebf2;fill-opacity:1;stroke-linecap:round;stroke-linejoin:round;-inkscape-stroke:none;paint-order:markers stroke fill"
      d="M102.437 143.183q-1.143 0-2.032.106-.868.105-1.545.444-.656.339-1.186.995-.529.635-.973 1.714-.043.085-.106.064-.042-.042-.085-.17.19-.57.445-1.1.254-.55.571-.995.339-.466.741-.783.402-.318.889-.402.53-.106 1.185-.085h1.313q.614 0 1.227.021h2.138q1.694-.021 2.71-.571.317-.17.635-.508.317-.339.317-.741 0-.106-.021-.148-.021-.021-.021-.064 0-.084.063-.084.021 0 .064.042.254.275.38.55.064.085.064.254 0 .127-.085.296-.36.593-1.08.847-.698.254-1.714.296-.36.022-.762.022-.402-.022-.72 0-.296 0-.444.211-1.185 1.8-2.201 3.514-.995 1.715-1.82 3.217-.19.36-.318.678-.106.296-.127.55 0 .17.042.339.043.148.19.275.15.106.424.19.297.064.762.064h.254q.148 0 .254-.021.064.084-.063.169-.36.042-.805.042-.444.021-.825.021-.318 0-.614-.02-.275 0-.508-.085-.212-.064-.36-.212-.127-.148-.127-.423 0-.17.085-.381.085-.212.233-.445.571-.931 1.143-1.905.592-.974 1.143-1.926.571-.974 1.1-1.884.53-.931.974-1.778.106-.19-.106-.19z"
      transform="translate(-95.563 -139.926)" />
</svg>