<?xml version="1.0" encoding="UTF-8" standalone="no"?>
<!-- Created with Inkscape (http://www.inkscape.org/) -->

<svg
   width="15mm"
   height="15mm"
   viewBox="0 0 15 15"
   version="1.1"
   id="svg1"
   xmlns="http://www.w3.org/2000/svg"
   xmlns:svg="http://www.w3.org/2000/svg">
  <defs
     id="defs1" />
  <g
     id="layer1"
     transform="translate(-96.059497,-140.42554)">
    <g
       id="g6"
       transform="translate(0.70048966,1.2684243)">
      <path
         id="path2"
         style="color:#000000;-inkscape-font-specification:'Zapfino, Normal';display:inline;fill:#e4ebf2;stroke:#a48515;stroke-linecap:round;stroke-linejoin:round;stroke-opacity:0.198819;-inkscape-stroke:none;paint-order:markers stroke fill"
         d="m 108.70138,140.42554 c -0.84043,0.0658 -0.19003,1.09176 -0.87044,1.37741 -0.97861,0.7389 -2.26964,0.74436 -3.44469,0.74041 -1.62056,0.0193 -3.24271,-0.0676 -4.861706,0.005 -0.865841,0.0326 -1.650701,0.50519 -2.172301,1.18305 -0.58718,0.7225 -0.965528,1.58961 -1.268585,2.46298 -0.215173,0.84632 1.075927,1.01835 1.140585,0.1682 0.47165,-1.12682 1.321002,-2.22971 2.575236,-2.50227 0.908671,-0.21914 1.854121,-0.21567 2.786111,-0.22632 -1.34645,2.51026 -2.872337,4.91973 -4.30053,7.38229 -0.328599,0.56588 -0.199198,1.44659 0.476526,1.68213 0.855654,0.31273 1.792184,0.14349 2.682204,0.15286 0.79049,0.27024 1.32273,-1.07898 0.33317,-1.09205 -0.4531,0.008 -0.97538,0.0854 -1.36118,-0.18814 -0.0769,-0.66565 0.40584,-1.23188 0.67896,-1.80198 1.15196,-2.09072 2.37239,-4.14381 3.69014,-6.13453 1.34333,-0.0235 2.79998,0.0889 3.99715,-0.63366 0.56374,-0.35695 1.16,-1.11226 0.72906,-1.7834 -0.18537,-0.30826 -0.40143,-0.7719 -0.80971,-0.79172 z m -3.85197,2.30683 c -0.0158,0.0109 -0.0633,-0.005 0,0 z" />
      <path
         style="color:#000000;-inkscape-font-specification:'Zapfino, Normal';display:inline;fill:#0b274d;stroke-linecap:round;stroke-linejoin:round;-inkscape-stroke:none;paint-order:markers stroke fill"
         d="m 102.43687,143.18274 q -1.143,0 -2.03201,0.10583 -0.867829,0.10583 -1.545163,0.4445 -0.656167,0.33867 -1.185333,0.99483 -0.529167,0.635 -0.973667,1.7145 -0.04233,0.0847 -0.105834,0.0635 -0.04233,-0.0423 -0.08467,-0.16933 0.190501,-0.5715 0.444501,-1.10067 0.254,-0.55033 0.5715,-0.99483 0.338667,-0.46567 0.740833,-0.78317 0.402167,-0.3175 0.889001,-0.40216 0.529167,-0.10584 1.185332,-0.0847 0.65617,0 1.31234,0 0.61383,0 1.22767,0.0212 0.61383,0 1.22766,0 h 0.91017 q 1.69333,-0.0212 2.70933,-0.5715 0.3175,-0.16934 0.635,-0.508 0.3175,-0.33867 0.3175,-0.74084 0,-0.10583 -0.0212,-0.14817 -0.0212,-0.0212 -0.0212,-0.0635 0,-0.0847 0.0635,-0.0847 0.0212,0 0.0635,0.0423 0.254,0.27517 0.381,0.55033 0.0635,0.0847 0.0635,0.254 0,0.12701 -0.0847,0.29634 -0.35983,0.59267 -1.0795,0.84667 -0.6985,0.254 -1.7145,0.29633 -0.35983,0.0212 -0.762,0.0212 -0.40216,-0.0212 -0.71966,0 -0.29634,0 -0.4445,0.21166 -1.18534,1.79917 -2.20134,3.51367 -0.99483,1.7145 -1.82033,3.21733 -0.1905,0.35984 -0.3175,0.67734 -0.105839,0.29633 -0.127005,0.55033 0,0.16934 0.04233,0.33867 0.04233,0.14817 0.190495,0.27517 0.14817,0.10583 0.42333,0.1905 0.29634,0.0635 0.76201,0.0635 0.10583,0 0.254,0 0.14816,0 0.254,-0.0212 0.0635,0.0847 -0.0635,0.16933 -0.35984,0.0423 -0.80434,0.0423 -0.4445,0.0212 -0.8255,0.0212 -0.317495,0 -0.613828,-0.0212 -0.275167,0 -0.508001,-0.0847 -0.211666,-0.0635 -0.359833,-0.21167 -0.127,-0.14816 -0.127,-0.42333 0,-0.16933 0.08467,-0.381 0.08467,-0.21167 0.232833,-0.4445 0.5715,-0.93134 1.142999,-1.905 0.59267,-0.97367 1.143,-1.92617 0.57151,-0.97367 1.10067,-1.88383 0.52917,-0.93134 0.97367,-1.778 0.10583,-0.1905 -0.10583,-0.1905 z"
         id="path3" />
    </g>
  </g>
</svg>
