<svg xmlns="http://www.w3.org/2000/svg" xml:space="preserve" viewBox="0 0 63.621 62.802">
  <path stroke="#000" stroke-linecap="round" stroke-linejoin="round"
    d="M22.924.588C10.032 4.286.617 16.695.517 30.105.088 42.806 8.027 54.998 19.77 59.809c12.022 5.24 26.84 2.01 35.547-7.832a31.4 31.4 0 0 0 7.774-15.992 2.285 2.285 0 0 0-4.213-1.549c-3.389 5.657-10.807 8.217-17.345 7.046l-.076-.013C31.05 39.967 21.879 30.794 21.114 20.263l-.004-.04c-.507-5.654.94-11.573 4.277-16.077A2.283 2.283 0 0 0 22.924.588m-4.452 6.965c-1.616 4.157-2.307 8.655-1.912 13.063.946 12.881 11.634 23.524 24.187 25.364 5.14.915 10.568-.15 15.116-2.77-1.072 2.056-2.37 3.995-3.932 5.7l-.027.033c-7.313 8.273-20.227 11.087-30.334 6.67l-.05-.023C11.625 51.545 4.71 40.917 5.08 30.233l.003-.065c.057-9.163 5.535-17.953 13.39-22.615"
    paint-order="stroke fill markers" />
</svg>