<svg xmlns="http://www.w3.org/2000/svg" xml:space="preserve" viewBox="0 0 64.015 64.016">
  <g stroke="#000" paint-order="stroke fill markers">
    <path stroke-linejoin="bevel"
      d="M32.002 15.485c-9.079 0-16.493 7.412-16.493 16.492 0 9.078 7.414 16.492 16.493 16.492 9.08 0 16.492-7.414 16.492-16.492 0-9.08-7.412-16.492-16.492-16.492zm0 5a11.454 11.454 0 0 1 11.493 11.492 11.454 11.454 0 0 1-11.493 11.491A11.454 11.454 0 0 1 20.51 31.977a11.454 11.454 0 0 1 11.492-11.493z" />
    <path stroke-linecap="round" stroke-linejoin="round"
      d="M32.002.5a2.5 2.5 0 0 0-2.5 2.5v6.854c0 .663.263 1.298.732 1.768a2.504 2.504 0 0 0 3.536 0c.468-.47.731-1.105.731-1.768V2.999A2.5 2.5 0 0 0 32.001.5m22.282 9.224a2.5 2.5 0 0 0-3.536 0l-4.846 4.847a2.501 2.501 0 0 0 3.536 3.536l4.846-4.847a2.5 2.5 0 0 0 0-3.536m9.232 22.279a2.5 2.5 0 0 0-2.5-2.5h-6.853a2.5 2.5 0 0 0-2.501 2.5 2.5 2.5 0 0 0 2.501 2.5h6.853a2.5 2.5 0 0 0 2.5-2.5m-9.225 22.28a2.5 2.5 0 0 0 0-3.534l-4.846-4.847a2.499 2.499 0 0 0-3.535 3.536l4.845 4.845a2.5 2.5 0 0 0 3.536 0m-22.277 9.233c.663 0 1.298-.263 1.767-.733.47-.469.733-1.104.733-1.768v-6.853a2.5 2.5 0 0 0-5.001 0v6.853a2.5 2.5 0 0 0 2.5 2.501M9.731 54.292a2.5 2.5 0 0 0 3.536 0l4.845-4.847a2.497 2.497 0 0 0 0-3.536 2.5 2.5 0 0 0-3.534 0L9.73 50.756a2.5 2.5 0 0 0 0 3.536M.5 32.013a2.5 2.5 0 0 0 2.5 2.5h6.852a2.5 2.5 0 0 0 2.5-2.5c0-.663-.263-1.298-.731-1.768a2.5 2.5 0 0 0-1.769-.732H3a2.5 2.5 0 0 0-2.5 2.5m9.224-22.28a2.5 2.5 0 0 0 0 3.534l4.847 4.847a2.5 2.5 0 0 0 3.535 0 2.5 2.5 0 0 0 .733-1.768c0-.663-.265-1.298-.733-1.768l-4.847-4.845a2.494 2.494 0 0 0-3.535 0" />
  </g>
</svg>